<?xml version="1.0" encoding="UTF-8" standalone="no"?>
<!-- Created with Inkscape (http://www.inkscape.org/) -->

<svg
   xmlns:dc="http://purl.org/dc/elements/1.1/"
   xmlns:cc="http://creativecommons.org/ns#"
   xmlns:rdf="http://www.w3.org/1999/02/22-rdf-syntax-ns#"
   xmlns:svg="http://www.w3.org/2000/svg"
   xmlns="http://www.w3.org/2000/svg"
   xmlns:xlink="http://www.w3.org/1999/xlink"
   xmlns:sodipodi="http://sodipodi.sourceforge.net/DTD/sodipodi-0.dtd"
   xmlns:inkscape="http://www.inkscape.org/namespaces/inkscape"
   width="2752.6589"
   height="680.95099"
   id="svg2"
   version="1.1"
   inkscape:version="0.48.4 r9939"
   sodipodi:docname="cone.app.draft.0.svg">
  <defs
     id="defs4">
    <linearGradient
       inkscape:collect="always"
       id="linearGradient3755">
      <stop
         style="stop-color:#000000;stop-opacity:1;"
         offset="0"
         id="stop3757" />
      <stop
         style="stop-color:#000000;stop-opacity:0;"
         offset="1"
         id="stop3759" />
    </linearGradient>
    <linearGradient
       inkscape:collect="always"
       xlink:href="#linearGradient3755"
       id="linearGradient3761"
       x1="57.357143"
       y1="273.06262"
       x2="416.92856"
       y2="273.06262"
       gradientUnits="userSpaceOnUse"
       gradientTransform="matrix(1.3935307,0,0,1.2498363,-79.751552,461.99838)" />
  </defs>
  <sodipodi:namedview
     id="base"
     pagecolor="#ffffff"
     bordercolor="#666666"
     borderopacity="1.0"
     inkscape:pageopacity="0.0"
     inkscape:pageshadow="2"
     inkscape:zoom="0.49497475"
     inkscape:cx="1474.2881"
     inkscape:cy="200.54129"
     inkscape:document-units="px"
     inkscape:current-layer="layer1"
     showgrid="false"
     showguides="true"
     inkscape:guide-bbox="true"
     inkscape:window-width="2479"
     inkscape:window-height="1410"
     inkscape:window-x="81"
     inkscape:window-y="30"
     inkscape:window-maximized="1"
     fit-margin-top="100"
     fit-margin-left="100"
     fit-margin-bottom="100"
     fit-margin-right="100" />
  <metadata
     id="metadata7">
    <rdf:RDF>
      <cc:Work
         rdf:about="">
        <dc:format>image/svg+xml</dc:format>
        <dc:type
           rdf:resource="http://purl.org/dc/dcmitype/StillImage" />
        <dc:title></dc:title>
      </cc:Work>
    </rdf:RDF>
  </metadata>
  <g
     inkscape:label="Ebene 1"
     inkscape:groupmode="layer"
     id="layer1"
     transform="translate(99.96875,-452.625)">
    <g
       id="g3121">
      <path
         sodipodi:nodetypes="cccc"
         inkscape:connector-curvature="0"
         id="path2985"
         d="M 254.6958,553.95062 1.5661143,981.32822 C 165.01226,917.25992 329.21857,917.06244 498.59013,981.39577 z"
         style="fill:url(#linearGradient3761);fill-opacity:1;stroke:#000000;stroke-width:1.31972921px;stroke-linecap:butt;stroke-linejoin:miter;stroke-opacity:0" />
      <path
         sodipodi:nodetypes="ccc"
         inkscape:connector-curvature="0"
         id="path3765"
         d="M 1.4955357,988.56185 C 170.97557,926.64365 323.32537,923.92581 498.73087,988.56307 325.06162,1048.0797 169.26163,1047.769 1.4955357,988.56185 z"
         style="fill:#aade87;stroke:#000000;stroke-width:1px;stroke-linecap:butt;stroke-linejoin:miter;stroke-opacity:0" />
      <path
         d="m 1177.8719,859.49434 c -29.4606,29.20164 -66.0273,51.5551 -109.7001,67.06046 -43.4152,15.76365 -88.25137,24.29156 -134.50852,25.58375 -2.3261,0.25834 -4.78111,0.38755 -7.36502,0.38764 -2.32609,-9e-5 -4.65189,-9e-5 -6.97739,0 -8.78662,-9e-5 -17.57296,-0.25851 -26.35902,-0.77527 -8.7866,-0.51693 -17.57293,-1.29219 -26.35902,-2.32579 -60.47088,-7.49431 -115.9023,-28.9433 -166.29443,-64.34703 -50.39227,-35.14535 -75.58837,-87.60492 -75.58837,-157.37887 0,-18.60622 2.84263,-36.04967 8.52792,-52.33042 5.94368,-16.53879 13.95475,-30.88118 24.03322,-43.02723 10.59525,-13.17926 22.87028,-23.2577 36.82511,-30.23535 13.95469,-6.97712 28.4263,-10.46581 43.41486,-10.46608 5.68516,2.7e-4 11.24122,0.51712 16.66821,1.55053 5.68514,1.03396 11.2412,2.58449 16.6682,4.6516 l 0,-6.58976 20.93217,0 0,55.81911 -20.93217,0 c -1.4e-4,-9.04454 -2.45515,-17.05561 -7.36502,-24.03323 -4.91015,-6.97714 -12.53358,-10.46583 -22.87033,-10.46608 -12.40435,2.5e-4 -24.55016,2.71367 -36.43747,8.14028 -11.62905,5.4271 -21.96591,13.69659 -31.01062,24.8085 -8.26953,10.33708 -14.98849,22.6121 -20.1569,36.8251 -4.91003,14.21337 -7.36504,29.33103 -7.36502,45.35303 -2e-5,26.35913 4.65157,50.13391 13.95478,71.32441 9.30314,21.19063 21.9658,39.79698 37.988,55.81911 20.93208,20.67373 45.48212,36.82508 73.65022,48.45409 28.1678,11.62892 57.11101,19.51078 86.82972,23.64559 10.33663,1.55047 20.54428,2.71336 30.62298,3.48869 10.3366,0.7752 20.54425,1.16283 30.62298,1.1629 2.3255,-7e-5 4.6513,-7e-5 6.97739,0 2.58391,-7e-5 5.03892,-0.12928 7.36502,-0.38763 43.41451,-1.29218 85.53722,-9.30324 126.36822,-24.03323 41.0886,-14.47165 75.4587,-35.27458 103.1103,-62.40886 l 14.7301,14.73004 0,0"
         style="font-size:387.63269043px;font-style:normal;font-variant:normal;font-weight:normal;font-stretch:normal;line-height:125%;letter-spacing:0px;word-spacing:0px;fill:#4d4d4d;fill-opacity:1;stroke:none;font-family:CoventryGarden;-inkscape-font-specification:CoventryGarden"
         id="path3090"
         inkscape:connector-curvature="0" />
      <path
         d="m 1044.4626,727.69923 c -2e-4,37.47126 -13.3089,69.51553 -39.9261,96.1329 -26.61767,26.61746 -58.79115,39.92617 -96.52056,39.92617 -37.47126,0 -69.51553,-13.30871 -96.13291,-39.92617 -26.61746,-26.61737 -39.92617,-58.66164 -39.92617,-96.1329 0,-37.72941 13.30871,-69.77368 39.92617,-96.13291 26.61738,-26.61719 58.66165,-39.9259 96.13291,-39.92617 37.72941,2.7e-4 69.90289,13.30898 96.52056,39.92617 26.6172,26.35923 39.9259,58.4035 39.9261,96.13291 l 0,0 m -21.3198,0 c -2e-4,-31.78572 -11.2415,-58.91998 -33.724,-81.40287 -22.48289,-22.48245 -49.61715,-33.72379 -81.40286,-33.72404 -31.52757,2.5e-4 -58.66183,11.24159 -81.40287,33.72404 -22.48273,22.48289 -33.72406,49.61715 -33.72404,81.40287 -2e-5,31.52756 11.24131,58.66182 33.72404,81.40286 22.74104,22.48273 49.8753,33.72407 81.40287,33.72405 31.78571,2e-5 58.91997,-11.24132 81.40286,-33.72405 22.4825,-22.74104 33.7238,-49.8753 33.724,-81.40286 l 0,0"
         style="font-size:387.63269043px;font-style:normal;font-variant:normal;font-weight:normal;font-stretch:normal;line-height:125%;letter-spacing:0px;word-spacing:0px;fill:#4d4d4d;fill-opacity:1;stroke:none;font-family:CoventryGarden;-inkscape-font-specification:CoventryGarden"
         id="path3092"
         inkscape:connector-curvature="0" />
      <path
         d="m 1207.8771,863.7583 -69.7739,0 0,-20.93216 8.1403,0 c 4.393,2e-5 8.1402,-1.55051 11.2413,-4.6516 3.101,-3.10103 4.6515,-6.84814 4.6516,-11.24134 l 0,-52.71805 c -1e-4,-30.75207 -7.1067,-59.69529 -21.3198,-86.82972 -14.2133,-27.39251 -33.5949,-50.00439 -58.1449,-67.83572 l 0,207.38349 c 0,4.3932 1.5505,8.14031 4.6516,11.24134 3.101,3.10109 6.8481,4.65162 11.2414,4.6516 l 8.5279,0 0,20.93216 -69.7739,0 0,-20.93216 8.5279,0 c 4.3932,2e-5 8.1403,-1.55051 11.2414,-4.6516 3.101,-3.10103 4.6515,-6.84814 4.6516,-11.24134 l 0,-198.46794 c -1e-4,-4.39293 -1.5506,-8.14005 -4.6516,-11.24135 -3.1011,-3.10081 -6.8482,-4.65134 -11.2414,-4.65159 l -8.5279,0 0,-20.93217 37.6004,0 c 0.2583,2.7e-4 0.5168,2.7e-4 0.7752,0 0.2584,2.7e-4 0.5168,0.12948 0.7753,0.38763 0.7752,2.8e-4 1.4213,0.12949 1.9382,0.38764 0.7752,2.7e-4 1.4212,0.25869 1.9381,0.77526 17.8311,10.33713 33.724,23.38742 47.6788,39.1509 13.9547,15.50553 25.3253,32.43214 34.1117,50.77989 l 0,-54.65621 c -1e-4,-4.39293 -1.5506,-8.14005 -4.6516,-11.24135 -3.1011,-3.10081 -6.8483,-4.65134 -11.2413,-4.65159 l -8.1403,0 0,-20.93217 69.7739,0 0,20.93217 -8.9156,0 c -4.1349,2.5e-4 -7.882,1.55078 -11.2413,4.65159 -3.1012,3.1013 -4.6518,6.84842 -4.6516,11.24135 l 0,198.46794 c -2e-4,4.3932 1.5504,8.14031 4.6516,11.24134 3.3593,3.10109 7.1064,4.65162 11.2413,4.6516 l 8.9156,0 0,20.93216 0,0"
         style="font-size:387.63269043px;font-style:normal;font-variant:normal;font-weight:normal;font-stretch:normal;line-height:125%;letter-spacing:0px;word-spacing:0px;fill:#4d4d4d;fill-opacity:1;stroke:none;font-family:CoventryGarden;-inkscape-font-specification:CoventryGarden"
         id="path3094"
         inkscape:connector-curvature="0" />
      <path
         d="m 1351.9795,863.7583 -132.5704,0 0,-20.93216 8.5279,0 c 4.3932,2e-5 8.0111,-1.55051 10.8538,-4.6516 3.101,-3.10103 4.7807,-6.71893 5.0392,-10.85371 l 0,-141.87357 -24.8085,0 0,-20.93216 24.8085,0 0,-36.43748 c -0.2585,-4.39293 -1.9382,-8.01083 -5.0392,-10.85371 -2.8427,-3.10081 -6.4606,-4.65134 -10.8538,-4.65159 l -8.5279,0 0,-20.93217 132.5704,0 0,44.96539 -20.9322,0 0,-8.14028 0,-0.38764 c -0.2585,-4.39293 -1.9382,-8.01083 -5.0392,-10.85371 -2.8427,-3.10081 -6.4606,-4.65134 -10.8537,-4.65159 l -50.3923,0 0,51.94278 48.8418,0 0,20.93216 -48.8418,0 0,157.37888 50.7799,0 c 4.1347,-0.25841 7.6234,-1.80893 10.4661,-4.6516 3.101,-3.10103 4.7807,-6.71893 5.0392,-10.85371 l 0,-0.38763 0,-8.52792 20.9322,0 0,45.35302 0,0"
         style="font-size:387.63269043px;font-style:normal;font-variant:normal;font-weight:normal;font-stretch:normal;line-height:125%;letter-spacing:0px;word-spacing:0px;fill:#4d4d4d;fill-opacity:1;stroke:none;font-family:CoventryGarden;-inkscape-font-specification:CoventryGarden"
         id="path3096"
         inkscape:connector-curvature="0" />
      <path
         d="m 1231.3163,934.27816 c -10e-5,9.46561 -3.1715,17.71136 -9.5143,24.73729 -6.343,7.02601 -14.1496,11.0757 -23.42,12.14908 l 0,2.92749 0,12.00271 c 0,1.65892 0.5855,3.07387 1.7565,4.24486 1.171,1.171 2.586,1.7565 4.2449,1.75649 l 3.2202,0 0,7.90422 -26.3474,0 0,-7.90422 3.2203,0 c 1.6589,10e-6 3.0738,-0.58549 4.2448,-1.75649 1.171,-1.17099 1.7565,-2.58594 1.7565,-4.24486 l 0,-74.94373 c 0,-1.65883 -0.5855,-3.07378 -1.7565,-4.24486 -1.171,-1.17091 -2.5859,-1.7564 -4.2448,-1.7565 l -3.2203,0 0,-7.90422 14.3447,0 c 9.8559,1e-4 18.248,3.65946 25.1764,10.97809 7.026,7.3188 10.5389,16.00368 10.539,26.05465 l 0,0 m -7.9042,0 c -10e-5,-7.31865 -2.4396,-13.71033 -7.3187,-19.17505 -4.7816,-5.46456 -10.6854,-8.6848 -17.7114,-9.66072 l 0,57.67155 c 7.026,-0.9758 12.9298,-4.19603 17.7114,-9.66072 4.8791,-5.4646 7.3186,-11.85627 7.3187,-19.17506 l 0,0"
         style="font-size:146.3744812px;font-style:normal;font-variant:normal;font-weight:normal;font-stretch:normal;line-height:125%;letter-spacing:0px;word-spacing:0px;fill:#4d4d4d;fill-opacity:1;stroke:none;font-family:CoventryGarden;-inkscape-font-specification:CoventryGarden"
         id="path3051"
         inkscape:connector-curvature="0" />
      <path
         d="m 1292.9926,905.14964 -3.2203,0 c -1.5614,10e-5 -2.9763,0.58559 -4.2448,1.7565 -1.1711,1.17108 -1.7566,2.58603 -1.7565,4.24486 l 0,30.59226 c -10e-5,7.31878 -1.7566,14.24716 -5.2695,20.78518 -3.4155,6.44051 -8.1482,11.70998 -14.1983,15.80844 l 0,7.75785 c -10e-5,1.65892 0.5854,3.07387 1.7565,4.24486 1.2685,1.171 2.6834,1.7565 4.2448,1.75649 l 3.2203,0 0,7.90422 -26.2011,0 0,-7.90422 3.0739,0 c 1.6589,10e-6 3.0738,-0.58549 4.2448,-1.75649 1.171,-1.17099 1.7565,-2.58594 1.7565,-4.24486 l 0,-7.90422 c -5.9525,-4.00088 -10.6853,-9.22156 -14.1983,-15.66207 -3.4154,-6.53802 -5.1231,-13.4664 -5.1231,-20.78518 l 0,-30.59226 c 0,-1.65883 -0.5855,-3.07378 -1.7565,-4.24486 -1.171,-1.17091 -2.5859,-1.7564 -4.2448,-1.7565 l -3.2203,0 0,-7.90422 17.1258,0 0,44.49784 c 0,5.85503 1.3662,11.41726 4.0985,16.68669 2.7323,5.26952 6.4893,9.61196 11.2708,13.02733 4.8792,-3.41537 8.6849,-7.70902 11.4173,-12.88095 2.7322,-5.26944 4.0984,-10.88045 4.0984,-16.83307 l 0,-44.49784 17.1259,0 0,7.90422 0,0"
         style="font-size:146.3744812px;font-style:normal;font-variant:normal;font-weight:normal;font-stretch:normal;line-height:125%;letter-spacing:0px;word-spacing:0px;fill:#4d4d4d;fill-opacity:1;stroke:none;font-family:CoventryGarden;-inkscape-font-specification:CoventryGarden"
         id="path3053"
         inkscape:connector-curvature="0" />
      <path
         d="m 1354.001,1000.0003 -28.9822,0 0,-7.90422 c 1.6589,-0.19515 2.8299,-0.63428 3.513,-1.31737 0.6831,-0.78065 1.0246,-1.6589 1.0246,-2.63474 0,-0.39032 -0.049,-0.78065 -0.1463,-1.17099 -0.098,-0.48791 -0.244,-0.97582 -0.4391,-1.46375 -0.1952,-0.4879 -0.4392,-0.92702 -0.7319,-1.31737 -0.1952,-0.4879 -0.4392,-0.92702 -0.7319,-1.31737 -1.5614,-2.14681 -3.0739,-4.29363 -4.5376,-6.44048 -1.3662,-2.1468 -2.7324,-4.29362 -4.0985,-6.44047 -0.8783,0.29278 -1.8053,0.53673 -2.7811,0.73187 -0.8783,0.0976 -1.8541,0.24399 -2.9275,0.43912 l 0,2.92749 0,12.00271 c 0,1.65892 0.5855,3.07387 1.7565,4.24486 1.2686,1.171 2.6835,1.7565 4.2449,1.75649 l 3.3666,0 0,7.90422 -26.3474,0 0,-7.90422 3.0738,0 c 1.6589,10e-6 3.0739,-0.58549 4.2449,-1.75649 1.171,-1.17099 1.7565,-2.58594 1.7565,-4.24486 l 0,-74.94373 c 0,-1.65883 -0.5855,-3.07378 -1.7565,-4.24486 -1.171,-1.17091 -2.586,-1.7564 -4.2449,-1.7565 l -3.0738,0 0,-7.90422 14.1983,0 c 9.9534,1e-4 18.3944,3.65946 25.3228,10.97809 7.0259,7.3188 10.5389,16.00368 10.5389,26.05465 0,7.12362 -1.8541,13.61288 -5.5622,19.46781 -3.6106,5.75744 -8.3922,10.19746 -14.3447,13.32008 0.7806,1.36619 1.6589,2.82993 2.6348,4.39123 1.0733,1.56136 2.1955,3.12268 3.3666,4.68398 1.3661,1.95169 2.8298,3.90334 4.3912,5.85498 1.5613,1.8541 3.1226,3.51301 4.684,4.97674 1.6588,1.56134 3.269,2.82991 4.8303,3.80573 1.5613,0.87826 3.0739,1.31738 4.5376,1.31737 l 2.4884,0 0.7319,0 0,7.90422 0,0 m -15.6621,-65.72214 c 0,-7.31865 -2.4396,-13.71033 -7.3187,-19.17505 -4.7816,-5.46456 -10.7342,-8.6848 -17.8577,-9.66072 l 0,57.67155 c 7.1235,-0.9758 13.0761,-4.19603 17.8577,-9.66072 4.8791,-5.4646 7.3187,-11.85627 7.3187,-19.17506 l 0,0"
         style="font-size:146.3744812px;font-style:normal;font-variant:normal;font-weight:normal;font-stretch:normal;line-height:125%;letter-spacing:0px;word-spacing:0px;fill:#4d4d4d;fill-opacity:1;stroke:none;font-family:CoventryGarden;-inkscape-font-specification:CoventryGarden"
         id="path3055"
         inkscape:connector-curvature="0" />
      <path
         d="m 1422.9319,1000.0003 -26.201,0 0,-7.90422 3.0739,0 c 1.6588,10e-6 3.0738,-0.58549 4.2448,-1.75649 1.171,-1.17099 1.7565,-2.58594 1.7565,-4.24486 l 0,-10.97809 -30.885,0 0,10.97809 c 0,1.65892 0.5855,3.07387 1.7565,4.24486 1.171,1.171 2.5859,1.7565 4.2449,1.75649 l 3.2202,0 0,7.90422 -26.3474,0 0,-7.90422 3.2202,0 c 1.6589,10e-6 3.0251,-0.58549 4.0985,-1.75649 1.171,-1.17099 1.8053,-2.53715 1.9029,-4.09849 l 0,-11.12446 -6.4405,0 0,-7.90422 6.4405,0 0,-31.61689 c 0,-8.58723 2.098,-16.1499 6.2941,-22.68804 4.196,-6.63555 9.8558,-12.10019 16.9794,-16.39394 7.2211,4.29375 12.9297,9.7096 17.1258,16.24756 4.196,6.53815 6.2941,14.14961 6.2941,22.83442 l 0,50.64557 c 0.098,1.56134 0.7319,2.9275 1.9029,4.09849 1.1709,1.171 2.5371,1.7565 4.0985,1.75649 l 3.2202,0 0,7.90422 0,0 m -17.1258,-32.78788 0,-31.61689 c 0,-5.95249 -1.3662,-11.5635 -4.0985,-16.83306 -2.7323,-5.2694 -6.5381,-9.56304 -11.4172,-12.88096 -4.7816,3.31792 -8.5385,7.61156 -11.2708,12.88096 -2.7324,5.26956 -4.0985,10.88057 -4.0985,16.83306 l 0,31.61689 30.885,0 0,0"
         style="font-size:146.3744812px;font-style:normal;font-variant:normal;font-weight:normal;font-stretch:normal;line-height:125%;letter-spacing:0px;word-spacing:0px;fill:#4d4d4d;fill-opacity:1;stroke:none;font-family:CoventryGarden;-inkscape-font-specification:CoventryGarden"
         id="path3057"
         inkscape:connector-curvature="0" />
      <path
         d="m 1495.9362,1000.0003 -26.3474,0 0,-7.90422 3.2202,0 c 1.6589,10e-6 3.0738,-0.58549 4.2449,-1.75649 1.1709,-1.17099 1.7564,-2.58594 1.7565,-4.24486 l 0,-66.60039 0,-11.70996 c -4.0985,3.51308 -7.3676,7.75793 -9.8071,12.73458 -2.342,4.87923 -3.513,10.09991 -3.513,15.66207 l -0.2927,0 -7.6115,0 -0.2928,0 c 0,-5.65974 -1.2198,-10.97801 -3.6593,-15.95482 -2.4396,-5.07423 -5.8062,-9.31908 -10.0999,-12.73458 l 0,12.00271 0,66.60039 c 0,1.65892 0.5855,3.07387 1.7565,4.24486 1.2686,1.171 2.6835,1.7565 4.2449,1.75649 l 3.3666,0 0,7.90422 -26.3474,0 0,-7.90422 3.0739,0 c 1.6589,10e-6 3.0738,-0.58549 4.2448,-1.75649 1.171,-1.17099 1.7565,-2.58594 1.7565,-4.24486 l 0,-74.94373 c 0,-1.65883 -0.5855,-3.07378 -1.7565,-4.24486 -1.171,-1.17091 -2.5859,-1.7564 -4.2448,-1.7565 l -3.0739,0 0,-7.90422 14.7838,0 c 0.098,1e-4 0.1952,1e-4 0.2928,0 0.098,1e-4 0.1951,0.0489 0.2927,0.14637 0.2928,1.1e-4 0.5367,0.0489 0.7319,0.14638 0.2927,10e-5 0.5367,0.0977 0.7319,0.29275 4.0008,2.24451 7.5138,5.1232 10.5389,8.63609 3.1226,3.51308 5.611,7.41639 7.4651,11.70996 0.2927,-0.683 0.5855,-1.31729 0.8783,-1.90287 0.3903,-0.68299 0.7806,-1.36607 1.171,-2.04924 0.1951,-0.29266 0.3903,-0.58541 0.5855,-0.87825 0.1951,-0.39024 0.3903,-0.78057 0.5855,-1.17099 1.7564,-3.12257 3.8057,-6.05005 6.1477,-8.78247 2.3419,-2.82981 5.2206,-4.68388 8.6361,-5.56223 l 2.0492,-0.5855 14.4911,0 0,7.90422 -3.2202,0 c -1.5614,10e-5 -2.9764,0.58559 -4.2449,1.7565 -1.1711,1.17108 -1.7566,2.58603 -1.7565,4.24486 l 0,74.94373 c -10e-5,1.65892 0.5854,3.07387 1.7565,4.24486 1.2685,1.171 2.6835,1.7565 4.2449,1.75649 l 3.2202,0 0,7.90422 0,0"
         style="font-size:146.3744812px;font-style:normal;font-variant:normal;font-weight:normal;font-stretch:normal;line-height:125%;letter-spacing:0px;word-spacing:0px;fill:#4d4d4d;fill-opacity:1;stroke:none;font-family:CoventryGarden;-inkscape-font-specification:CoventryGarden"
         id="path3059"
         inkscape:connector-curvature="0" />
      <path
         d="m 1527.6583,1000.0003 -26.3474,0 0,-7.90422 3.2202,0 c 1.6589,10e-6 3.0739,-0.58549 4.2449,-1.75649 1.171,-1.17099 1.7565,-2.58594 1.7565,-4.24486 l 0,-74.94373 c 0,-1.65883 -0.5855,-3.07378 -1.7565,-4.24486 -1.171,-1.17091 -2.586,-1.7564 -4.2449,-1.7565 l -3.2202,0 0,-7.90422 26.3474,0 0,7.90422 -3.2202,0 c -1.659,10e-5 -3.0739,0.58559 -4.2449,1.7565 -1.171,1.17108 -1.7565,2.58603 -1.7565,4.24486 l 0,74.94373 c 0,1.65892 0.5855,3.07387 1.7565,4.24486 1.171,1.171 2.5859,1.7565 4.2449,1.75649 l 3.2202,0 0,7.90422 0,0"
         style="font-size:146.3744812px;font-style:normal;font-variant:normal;font-weight:normal;font-stretch:normal;line-height:125%;letter-spacing:0px;word-spacing:0px;fill:#4d4d4d;fill-opacity:1;stroke:none;font-family:CoventryGarden;-inkscape-font-specification:CoventryGarden"
         id="path3061"
         inkscape:connector-curvature="0" />
      <path
         d="m 1597.3097,948.62286 c -10e-5,14.05199 -4.9768,26.10348 -14.9302,36.1545 -9.8559,9.95347 -21.8098,15.02778 -35.8618,15.22294 l -13.9055,0 0,-7.90422 3.0738,0 0.1464,0 c 1.6589,10e-6 3.0738,-0.58549 4.2449,-1.75649 1.1709,-1.26857 1.7564,-2.68352 1.7564,-4.24486 l 0,-74.94373 c 0,-1.65883 -0.5855,-3.07378 -1.7564,-4.24486 -1.1711,-1.17091 -2.586,-1.7564 -4.2449,-1.7565 l -3.2202,0 0,-7.90422 13.9055,0 c 14.052,0.0977 26.0059,5.172 35.8618,15.22295 9.9534,10.05112 14.9301,22.10261 14.9302,36.15449 l 0,0 m -7.9042,0 c -10e-5,-11.31956 -3.8546,-21.12664 -11.5636,-29.42127 -7.6115,-8.29446 -16.9795,-12.92965 -28.1039,-13.90557 l 0,86.65369 c 11.1244,-0.97582 20.4924,-5.61101 28.1039,-13.90558 7.709,-8.29452 11.5635,-18.1016 11.5636,-29.42127 l 0,0"
         style="font-size:146.3744812px;font-style:normal;font-variant:normal;font-weight:normal;font-stretch:normal;line-height:125%;letter-spacing:0px;word-spacing:0px;fill:#4d4d4d;fill-opacity:1;stroke:none;font-family:CoventryGarden;-inkscape-font-specification:CoventryGarden"
         id="path3063"
         inkscape:connector-curvature="0" />
      <path
         d="m 1736.1253,962.67481 c -10e-5,10.24624 -3.6594,19.0287 -10.9781,26.34741 -7.3188,7.31873 -16.15,10.97808 -26.4938,10.97808 l -27.9575,0 0,-7.90422 3.2202,0 c 1.6589,10e-6 3.0739,-0.58549 4.2449,-1.75649 1.171,-1.26857 1.7565,-2.68352 1.7565,-4.24486 l 0,-74.94373 c 0,-1.65883 -0.5855,-3.07378 -1.7565,-4.24486 -1.171,-1.17091 -2.586,-1.7564 -4.2449,-1.7565 l -3.2202,0 0,-7.90422 22.2489,0 c 6.1477,1e-4 11.222,2.24451 15.223,6.73323 4.0008,4.4889 6.0013,9.56321 6.0013,15.22294 0,1.46383 -0.1464,2.92757 -0.4391,4.39124 -0.2928,1.46382 -0.7807,2.87877 -1.4638,4.24486 7.1236,2.73239 12.8809,7.31878 17.2722,13.7592 4.3912,6.34294 6.5868,13.36891 6.5869,21.07792 l 0,0 M 1721.7806,944.378 c -3.0251,-3.90326 -6.3917,-6.58679 -10.0999,-8.05059 -3.6106,-1.46368 -7.6115,-2.68347 -12.0027,-3.65937 -0.098,7e-5 -0.1952,7e-5 -0.2927,0 -0.098,-0.0975 -0.1952,-0.1463 -0.2928,-0.14637 0.3903,-0.48785 0.7319,-0.92697 1.0247,-1.31737 0.3903,-0.48785 0.7806,-0.92697 1.171,-1.31737 0.8782,-0.97576 1.7076,-2.00038 2.4883,-3.07387 0.7807,-1.07333 1.3662,-2.14675 1.7565,-3.22023 0.1951,-0.39026 0.2927,-0.78059 0.2928,-1.171 0.097,-0.39025 0.1951,-0.78059 0.2927,-1.171 0.098,-0.29267 0.1464,-0.63421 0.1464,-1.02462 0,-0.39025 0,-0.78058 0,-1.17099 0,-3.61049 -1.2686,-6.83072 -3.8057,-9.66072 -2.5372,-2.82981 -5.7087,-4.24476 -9.5144,-4.24486 l -5.1231,0 0,86.94644 c 1.8541,10e-6 3.6593,10e-6 5.4159,0 1.854,10e-6 3.6593,10e-6 5.4158,0 8.7825,10e-6 15.906,-3.07385 21.3707,-9.22159 5.4646,-6.1477 8.1969,-13.0273 8.197,-20.6388 -10e-5,-0.48788 -0.049,-0.927 -0.1464,-1.31737 -10e-5,-0.48788 -10e-5,-0.927 0,-1.31737 -0.2928,-2.6347 -0.9759,-5.22065 -2.0493,-7.75785 -0.9758,-2.63469 -2.3908,-5.12305 -4.2448,-7.4651 l 0,0"
         style="font-size:146.3744812px;font-style:normal;font-variant:normal;font-weight:normal;font-stretch:normal;line-height:125%;letter-spacing:0px;word-spacing:0px;fill:#4d4d4d;fill-opacity:1;stroke:none;font-family:CoventryGarden;-inkscape-font-specification:CoventryGarden"
         id="path3065"
         inkscape:connector-curvature="0" />
      <path
         d="m 1797.7307,1000.0003 -26.2011,0 0,-7.90422 3.0739,0 c 1.6588,10e-6 3.0738,-0.58549 4.2448,-1.75649 1.171,-1.17099 1.7565,-2.58594 1.7565,-4.24486 l 0,-10.97809 -30.885,0 0,10.97809 c 0,1.65892 0.5855,3.07387 1.7565,4.24486 1.171,1.171 2.5859,1.7565 4.2449,1.75649 l 3.2202,0 0,7.90422 -26.3474,0 0,-7.90422 3.2202,0 c 1.659,10e-6 3.0251,-0.58549 4.0985,-1.75649 1.171,-1.17099 1.8053,-2.53715 1.9029,-4.09849 l 0,-11.12446 -6.4405,0 0,-7.90422 6.4405,0 0,-31.61689 c 0,-8.58723 2.098,-16.1499 6.2941,-22.68804 4.196,-6.63555 9.8559,-12.10019 16.9794,-16.39394 7.2211,4.29375 12.9297,9.7096 17.1259,16.24756 4.196,6.53815 6.294,14.14961 6.2941,22.83442 l 0,50.64557 c 0.098,1.56134 0.7318,2.9275 1.9028,4.09849 1.171,1.171 2.5371,1.7565 4.0985,1.75649 l 3.2203,0 0,7.90422 0,0 m -17.1259,-32.78788 0,-31.61689 c 0,-5.95249 -1.3662,-11.5635 -4.0984,-16.83306 -2.7324,-5.2694 -6.5381,-9.56304 -11.4173,-12.88096 -4.7816,3.31792 -8.5385,7.61156 -11.2708,12.88096 -2.7323,5.26956 -4.0985,10.88057 -4.0985,16.83306 l 0,31.61689 30.885,0 0,0"
         style="font-size:146.3744812px;font-style:normal;font-variant:normal;font-weight:normal;font-stretch:normal;line-height:125%;letter-spacing:0px;word-spacing:0px;fill:#4d4d4d;fill-opacity:1;stroke:none;font-family:CoventryGarden;-inkscape-font-specification:CoventryGarden"
         id="path3067"
         inkscape:connector-curvature="0" />
      <path
         d="m 1857.2685,968.23704 c -10e-5,8.78249 -3.1227,16.29638 -9.368,22.54167 -6.2453,6.14773 -13.7104,9.22159 -22.3953,9.22159 -2.8299,0 -5.6598,-0.39033 -8.4897,-1.17099 -2.7323,-0.78066 -5.3183,-1.85407 -7.7579,-3.22024 l 0,4.39123 -7.9042,0 0,-22.83441 7.9042,0 0,2.63474 0,3.07386 c 0,2.24442 0.9759,4.04971 2.9275,5.41586 1.9517,1.26859 4.0497,2.19562 6.2941,2.78111 1.3662,0.39034 2.6348,0.68309 3.8058,0.87825 1.2685,0.0976 2.3419,0.14638 3.2202,0.14637 6.538,10e-6 12.1491,-2.34198 16.8331,-7.02597 4.6839,-4.68397 7.0259,-10.29498 7.0259,-16.83307 0,-6.14769 -2.0004,-11.222 -6.0013,-15.22294 -3.9034,-4.00085 -8.2458,-7.66021 -13.0273,-10.97809 -0.488,-0.29269 -0.9759,-0.58544 -1.4638,-0.87825 -0.4879,-0.39027 -0.9758,-0.73181 -1.4637,-1.02462 -0.6831,-0.39027 -1.3662,-0.7806 -2.0493,-1.17099 -0.5855,-0.48786 -1.171,-0.92698 -1.7565,-1.31737 -4.4888,-3.12259 -8.3433,-6.34283 -11.5635,-9.66072 -3.2203,-3.41533 -4.8304,-7.66018 -4.8304,-12.73458 0,-5.17181 1.8541,-9.46546 5.5622,-12.88095 3.7082,-3.41531 7.9042,-5.07422 12.5882,-4.97674 1.0734,1.1e-4 2.1468,0.0977 3.2203,0.29275 1.0734,0.19527 2.098,0.48802 3.0738,0.87825 l 0,-1.46375 7.9043,0 0,17.41857 -7.9043,0 c 0,-0.48783 0,-0.97575 0,-1.46375 0,-0.58541 0,-1.1709 0,-1.75649 0,-1.95157 -0.6831,-3.41531 -2.0492,-4.39123 -1.2686,-1.07332 -2.8299,-1.61003 -4.684,-1.61012 0,9e-5 -0.049,9e-5 -0.1464,0 0,9e-5 -0.049,9e-5 -0.1463,0 -0.098,9e-5 -0.1952,9e-5 -0.2928,0 0,9e-5 0,9e-5 0,0 -2.342,0.19526 -4.4888,1.21988 -6.4405,3.07386 -1.8541,1.75658 -2.7811,4.04978 -2.7811,6.8796 0,3.02515 1.171,5.75748 3.513,8.19697 2.4396,2.43965 5.3183,4.83043 8.6361,7.17235 0.7806,0.48798 1.5125,0.9759 2.1956,1.46375 0.7807,0.48798 1.5613,0.97589 2.342,1.46374 0.4879,0.29282 0.9758,0.63436 1.4638,1.02462 0.4878,0.29282 0.9758,0.58556 1.4637,0.87825 5.6598,3.8058 10.8317,8.19703 15.5157,13.1737 4.6839,4.97678 7.0259,11.51483 7.026,19.61418 l 0,0"
         style="font-size:146.3744812px;font-style:normal;font-variant:normal;font-weight:normal;font-stretch:normal;line-height:125%;letter-spacing:0px;word-spacing:0px;fill:#4d4d4d;fill-opacity:1;stroke:none;font-family:CoventryGarden;-inkscape-font-specification:CoventryGarden"
         id="path3069"
         inkscape:connector-curvature="0" />
      <path
         d="m 1910.16,1000.0003 -50.0601,0 0,-7.90422 3.2203,0 c 1.6589,10e-6 3.025,-0.58549 4.0985,-1.75649 1.1709,-1.17099 1.8052,-2.53715 1.9028,-4.09849 l 0,-53.57306 -9.3679,0 0,-7.90422 9.3679,0 0,-13.7592 c -0.098,-1.65882 -0.7319,-3.02498 -1.9028,-4.09848 -1.0735,-1.17091 -2.4396,-1.7564 -4.0985,-1.7565 l -3.2203,0 0,-7.90422 50.0601,0 0,16.97944 -7.9042,0 0,-3.07386 0,-0.14638 c -0.098,-1.65882 -0.7319,-3.02498 -1.9029,-4.09848 -1.0734,-1.17091 -2.4396,-1.7564 -4.0985,-1.7565 l -19.0287,0 0,19.61418 18.4432,0 0,7.90422 -18.4432,0 0,59.42804 19.1751,0 c 1.5613,-0.0976 2.8787,-0.68307 3.9521,-1.75649 1.171,-1.17099 1.8053,-2.53715 1.9029,-4.09849 l 0,-0.14637 0,-3.22024 7.9042,0 0,17.12581 0,0"
         style="font-size:146.3744812px;font-style:normal;font-variant:normal;font-weight:normal;font-stretch:normal;line-height:125%;letter-spacing:0px;word-spacing:0px;fill:#4d4d4d;fill-opacity:1;stroke:none;font-family:CoventryGarden;-inkscape-font-specification:CoventryGarden"
         id="path3071"
         inkscape:connector-curvature="0" />
      <path
         d="m 1978.6838,948.62286 c 0,14.05199 -4.9767,26.10348 -14.9301,36.1545 -9.856,9.95347 -21.8099,15.02778 -35.8618,15.22294 l -13.9056,0 0,-7.90422 3.0739,0 0.1464,0 c 1.6589,10e-6 3.0738,-0.58549 4.2448,-1.75649 1.171,-1.26857 1.7565,-2.68352 1.7565,-4.24486 l 0,-74.94373 c 0,-1.65883 -0.5855,-3.07378 -1.7565,-4.24486 -1.171,-1.17091 -2.5859,-1.7564 -4.2448,-1.7565 l -3.2203,0 0,-7.90422 13.9056,0 c 14.0519,0.0977 26.0058,5.172 35.8618,15.22295 9.9534,10.05112 14.9301,22.10261 14.9301,36.15449 l 0,0 m -7.9042,0 c 0,-11.31956 -3.8546,-21.12664 -11.5636,-29.42127 -7.6115,-8.29446 -16.9794,-12.92965 -28.1039,-13.90557 l 0,86.65369 c 11.1245,-0.97582 20.4924,-5.61101 28.1039,-13.90558 7.709,-8.29452 11.5636,-18.1016 11.5636,-29.42127 l 0,0"
         style="font-size:146.3744812px;font-style:normal;font-variant:normal;font-weight:normal;font-stretch:normal;line-height:125%;letter-spacing:0px;word-spacing:0px;fill:#4d4d4d;fill-opacity:1;stroke:none;font-family:CoventryGarden;-inkscape-font-specification:CoventryGarden"
         id="path3073"
         inkscape:connector-curvature="0" />
      <path
         d="m 2135.7963,905.14964 -3.2203,0 c -1.5614,10e-5 -2.9763,0.58559 -4.2448,1.7565 -1.1711,1.17108 -1.7566,2.58603 -1.7565,4.24486 l 0,61.03815 c -1e-4,6.63567 -1.659,12.44185 -4.9768,17.41857 -3.3178,4.87915 -7.7091,8.97763 -13.1737,12.29548 -3.0251,-1.8541 -5.7574,-3.90334 -8.1969,-6.14775 -2.3421,-2.34199 -4.3425,-4.92794 -6.0014,-7.75785 -1.5613,2.82991 -3.5618,5.41586 -6.0013,7.75785 -2.3421,2.24441 -5.0744,4.29365 -8.197,6.14775 -5.4647,-3.31785 -9.8559,-7.41633 -13.1737,-12.29548 -3.3178,-4.87914 -4.9768,-10.68532 -4.9767,-17.41857 l 0,-61.18453 c -10e-5,-1.65882 -0.5855,-3.02498 -1.7565,-4.09848 -1.171,-1.17091 -2.586,-1.7564 -4.2449,-1.7565 l -3.2202,0 0,-7.90422 17.1258,0 0,74.94373 c 0,4.00093 0.8782,7.80666 2.6347,11.41721 1.8541,3.61059 4.3912,6.63566 7.6115,9.07522 3.2202,-2.43956 5.7086,-5.46463 7.4651,-9.07522 1.854,-3.61055 2.7811,-7.41628 2.7811,-11.41721 l 0,-61.03815 c 0,-1.65883 -0.5855,-3.07378 -1.7565,-4.24486 -1.171,-1.17091 -2.586,-1.7564 -4.2448,-1.7565 l -3.2203,0 0,-7.90422 26.3474,0 0,7.90422 -3.2202,0 c -1.5614,10e-5 -2.9276,0.5368 -4.0985,1.61012 -1.171,1.07351 -1.8053,2.43967 -1.9029,4.09849 l 0,61.3309 c 0,4.00093 0.8782,7.80666 2.6348,11.41721 1.854,3.61059 4.3912,6.63566 7.6114,9.07522 3.2202,-2.43956 5.7086,-5.46463 7.4651,-9.07522 1.8541,-3.61055 2.7811,-7.41628 2.7812,-11.41721 l 0,-74.94373 17.1258,0 0,7.90422 0,0"
         style="font-size:146.3744812px;font-style:normal;font-variant:normal;font-weight:normal;font-stretch:normal;line-height:125%;letter-spacing:0px;word-spacing:0px;fill:#4d4d4d;fill-opacity:1;stroke:none;font-family:CoventryGarden;-inkscape-font-specification:CoventryGarden"
         id="path3075"
         inkscape:connector-curvature="0" />
      <path
         d="m 2188.9004,1000.0003 -50.0601,0 0,-7.90422 3.2203,0 c 1.6589,10e-6 3.025,-0.58549 4.0985,-1.75649 1.171,-1.17099 1.8052,-2.53715 1.9028,-4.09849 l 0,-53.57306 -9.3679,0 0,-7.90422 9.3679,0 0,-13.7592 c -0.098,-1.65882 -0.7318,-3.02498 -1.9028,-4.09848 -1.0735,-1.17091 -2.4396,-1.7564 -4.0985,-1.7565 l -3.2203,0 0,-7.90422 50.0601,0 0,16.97944 -7.9042,0 0,-3.07386 0,-0.14638 c -0.098,-1.65882 -0.7319,-3.02498 -1.9029,-4.09848 -1.0734,-1.17091 -2.4396,-1.7564 -4.0985,-1.7565 l -19.0286,0 0,19.61418 18.4431,0 0,7.90422 -18.4431,0 0,59.42804 19.175,0 c 1.5613,-0.0976 2.8787,-0.68307 3.9521,-1.75649 1.171,-1.17099 1.8053,-2.53715 1.9029,-4.09849 l 0,-0.14637 0,-3.22024 7.9042,0 0,17.12581 0,0"
         style="font-size:146.3744812px;font-style:normal;font-variant:normal;font-weight:normal;font-stretch:normal;line-height:125%;letter-spacing:0px;word-spacing:0px;fill:#4d4d4d;fill-opacity:1;stroke:none;font-family:CoventryGarden;-inkscape-font-specification:CoventryGarden"
         id="path3077"
         inkscape:connector-curvature="0" />
      <path
         d="m 2258.1561,962.67481 c 0,10.24624 -3.6594,19.0287 -10.978,26.34741 -7.3188,7.31873 -16.1501,10.97808 -26.4938,10.97808 l -27.9576,0 0,-7.90422 3.2203,0 c 1.6589,10e-6 3.0738,-0.58549 4.2448,-1.75649 1.171,-1.26857 1.7565,-2.68352 1.7565,-4.24486 l 0,-74.94373 c 0,-1.65883 -0.5855,-3.07378 -1.7565,-4.24486 -1.171,-1.17091 -2.5859,-1.7564 -4.2448,-1.7565 l -3.2203,0 0,-7.90422 22.249,0 c 6.1477,1e-4 11.222,2.24451 15.2229,6.73323 4.0009,4.4889 6.0013,9.56321 6.0014,15.22294 -10e-5,1.46383 -0.1465,2.92757 -0.4392,4.39124 -0.2927,1.46382 -0.7807,2.87877 -1.4637,4.24486 7.1235,2.73239 12.8809,7.31878 17.2722,13.7592 4.3912,6.34294 6.5868,13.36891 6.5868,21.07792 l 0,0 M 2243.8114,944.378 c -3.0251,-3.90326 -6.3917,-6.58679 -10.0998,-8.05059 -3.6106,-1.46368 -7.6115,-2.68347 -12.0027,-3.65937 -0.098,7e-5 -0.1952,7e-5 -0.2928,0 -0.098,-0.0975 -0.1952,-0.1463 -0.2927,-0.14637 0.3903,-0.48785 0.7318,-0.92697 1.0246,-1.31737 0.3903,-0.48785 0.7807,-0.92697 1.171,-1.31737 0.8782,-0.97576 1.7077,-2.00038 2.4884,-3.07387 0.7806,-1.07333 1.3661,-2.14675 1.7565,-3.22023 0.1951,-0.39026 0.2927,-0.78059 0.2927,-1.171 0.098,-0.39025 0.1952,-0.78059 0.2928,-1.171 0.098,-0.29267 0.1463,-0.63421 0.1463,-1.02462 0,-0.39025 0,-0.78058 0,-1.17099 0,-3.61049 -1.2686,-6.83072 -3.8057,-9.66072 -2.5372,-2.82981 -5.7086,-4.24476 -9.5143,-4.24486 l -5.1231,0 0,86.94644 c 1.854,10e-6 3.6593,10e-6 5.4158,0 1.8541,10e-6 3.6594,10e-6 5.4159,0 8.7824,10e-6 15.906,-3.07385 21.3706,-9.22159 5.4646,-6.1477 8.197,-13.0273 8.197,-20.6388 0,-0.48788 -0.049,-0.927 -0.1464,-1.31737 0,-0.48788 0,-0.927 0,-1.31737 -0.2928,-2.6347 -0.9758,-5.22065 -2.0492,-7.75785 -0.9759,-2.63469 -2.3908,-5.12305 -4.2449,-7.4651 l 0,0"
         style="font-size:146.3744812px;font-style:normal;font-variant:normal;font-weight:normal;font-stretch:normal;line-height:125%;letter-spacing:0px;word-spacing:0px;fill:#4d4d4d;fill-opacity:1;stroke:none;font-family:CoventryGarden;-inkscape-font-specification:CoventryGarden"
         id="path3079"
         inkscape:connector-curvature="0" />
      <path
         d="m 2396.3795,1000.0003 -26.2011,0 0,-7.90422 3.0739,0 c 1.6589,10e-6 3.0738,-0.58549 4.2448,-1.75649 1.171,-1.17099 1.7565,-2.58594 1.7565,-4.24486 l 0,-10.97809 -30.885,0 0,10.97809 c 0,1.65892 0.5855,3.07387 1.7565,4.24486 1.171,1.171 2.5859,1.7565 4.2449,1.75649 l 3.2202,0 0,7.90422 -26.3474,0 0,-7.90422 3.2202,0 c 1.659,10e-6 3.0251,-0.58549 4.0985,-1.75649 1.171,-1.17099 1.8053,-2.53715 1.9029,-4.09849 l 0,-11.12446 -6.4405,0 0,-7.90422 6.4405,0 0,-31.61689 c 0,-8.58723 2.098,-16.1499 6.2941,-22.68804 4.1961,-6.63555 9.8559,-12.10019 16.9794,-16.39394 7.2211,4.29375 12.9297,9.7096 17.1259,16.24756 4.196,6.53815 6.294,14.14961 6.2941,22.83442 l 0,50.64557 c 0.097,1.56134 0.7318,2.9275 1.9028,4.09849 1.171,1.171 2.5371,1.7565 4.0985,1.75649 l 3.2203,0 0,7.90422 0,0 m -17.1259,-32.78788 0,-31.61689 c 0,-5.95249 -1.3662,-11.5635 -4.0984,-16.83306 -2.7324,-5.2694 -6.5381,-9.56304 -11.4173,-12.88096 -4.7815,3.31792 -8.5385,7.61156 -11.2708,12.88096 -2.7323,5.26956 -4.0985,10.88057 -4.0985,16.83306 l 0,31.61689 30.885,0 0,0"
         style="font-size:146.3744812px;font-style:normal;font-variant:normal;font-weight:normal;font-stretch:normal;line-height:125%;letter-spacing:0px;word-spacing:0px;fill:#4d4d4d;fill-opacity:1;stroke:none;font-family:CoventryGarden;-inkscape-font-specification:CoventryGarden"
         id="path3081"
         inkscape:connector-curvature="0" />
      <path
         d="m 2449.7695,934.27816 c 0,9.46561 -3.1714,17.71136 -9.5143,24.73729 -6.3429,7.02601 -14.1496,11.0757 -23.4199,12.14908 l 0,2.92749 0,12.00271 c 0,1.65892 0.5855,3.07387 1.7565,4.24486 1.171,1.171 2.5859,1.7565 4.2448,1.75649 l 3.2203,0 0,7.90422 -26.3474,0 0,-7.90422 3.2202,0 c 1.6589,10e-6 3.0739,-0.58549 4.2449,-1.75649 1.171,-1.17099 1.7565,-2.58594 1.7565,-4.24486 l 0,-74.94373 c 0,-1.65883 -0.5855,-3.07378 -1.7565,-4.24486 -1.171,-1.17091 -2.586,-1.7564 -4.2449,-1.7565 l -3.2202,0 0,-7.90422 14.3447,0 c 9.8558,1e-4 18.248,3.65946 25.1764,10.97809 7.0259,7.3188 10.5389,16.00368 10.5389,26.05465 l 0,0 m -7.9042,0 c 0,-7.31865 -2.4396,-13.71033 -7.3187,-19.17505 -4.7816,-5.46456 -10.6854,-8.6848 -17.7113,-9.66072 l 0,57.67155 c 7.0259,-0.9758 12.9297,-4.19603 17.7113,-9.66072 4.8791,-5.4646 7.3187,-11.85627 7.3187,-19.17506 l 0,0"
         style="font-size:146.3744812px;font-style:normal;font-variant:normal;font-weight:normal;font-stretch:normal;line-height:125%;letter-spacing:0px;word-spacing:0px;fill:#4d4d4d;fill-opacity:1;stroke:none;font-family:CoventryGarden;-inkscape-font-specification:CoventryGarden"
         id="path3083"
         inkscape:connector-curvature="0" />
      <path
         d="m 2499.0851,934.27816 c -10e-5,9.46561 -3.1715,17.71136 -9.5143,24.73729 -6.343,7.02601 -14.1496,11.0757 -23.42,12.14908 l 0,2.92749 0,12.00271 c 0,1.65892 0.5855,3.07387 1.7565,4.24486 1.171,1.171 2.586,1.7565 4.2449,1.75649 l 3.2202,0 0,7.90422 -26.3474,0 0,-7.90422 3.2203,0 c 1.6589,10e-6 3.0738,-0.58549 4.2448,-1.75649 1.171,-1.17099 1.7565,-2.58594 1.7565,-4.24486 l 0,-74.94373 c 0,-1.65883 -0.5855,-3.07378 -1.7565,-4.24486 -1.171,-1.17091 -2.5859,-1.7564 -4.2448,-1.7565 l -3.2203,0 0,-7.90422 14.3447,0 c 9.8559,1e-4 18.248,3.65946 25.1764,10.97809 7.026,7.3188 10.5389,16.00368 10.539,26.05465 l 0,0 m -7.9042,0 c -10e-5,-7.31865 -2.4396,-13.71033 -7.3187,-19.17505 -4.7816,-5.46456 -10.6854,-8.6848 -17.7114,-9.66072 l 0,57.67155 c 7.026,-0.9758 12.9298,-4.19603 17.7114,-9.66072 4.8791,-5.4646 7.3186,-11.85627 7.3187,-19.17506 l 0,0"
         style="font-size:146.3744812px;font-style:normal;font-variant:normal;font-weight:normal;font-stretch:normal;line-height:125%;letter-spacing:0px;word-spacing:0px;fill:#4d4d4d;fill-opacity:1;stroke:none;font-family:CoventryGarden;-inkscape-font-specification:CoventryGarden"
         id="path3085"
         inkscape:connector-curvature="0" />
      <path
         d="m 2552.6902,968.23704 c 0,8.78249 -3.1227,16.29638 -9.3679,22.54167 -6.2454,6.14773 -13.7105,9.22159 -22.3953,9.22159 -2.83,0 -5.6599,-0.39033 -8.4898,-1.17099 -2.7323,-0.78066 -5.3182,-1.85407 -7.7578,-3.22024 l 0,4.39123 -7.9042,0 0,-22.83441 7.9042,0 0,2.63474 0,3.07386 c 0,2.24442 0.9758,4.04971 2.9275,5.41586 1.9516,1.26859 4.0497,2.19562 6.2941,2.78111 1.3661,0.39034 2.6347,0.68309 3.8057,0.87825 1.2686,0.0976 2.342,0.14638 3.2203,0.14637 6.538,10e-6 12.149,-2.34198 16.833,-7.02597 4.684,-4.68397 7.026,-10.29498 7.026,-16.83307 0,-6.14769 -2.0005,-11.222 -6.0014,-15.22294 -3.9033,-4.00085 -8.2457,-7.66021 -13.0273,-10.97809 -0.4879,-0.29269 -0.9758,-0.58544 -1.4637,-0.87825 -0.488,-0.39027 -0.9759,-0.73181 -1.4638,-1.02462 -0.6831,-0.39027 -1.3662,-0.7806 -2.0492,-1.17099 -0.5855,-0.48786 -1.171,-0.92698 -1.7565,-1.31737 -4.4888,-3.12259 -8.3434,-6.34283 -11.5636,-9.66072 -3.2202,-3.41533 -4.8304,-7.66018 -4.8303,-12.73458 -1e-4,-5.17181 1.854,-9.46546 5.5622,-12.88095 3.7081,-3.41531 7.9042,-5.07422 12.5882,-4.97674 1.0734,1.1e-4 2.1468,0.0977 3.2202,0.29275 1.0734,0.19527 2.098,0.48802 3.0739,0.87825 l 0,-1.46375 7.9042,0 0,17.41857 -7.9042,0 c 0,-0.48783 0,-0.97575 0,-1.46375 0,-0.58541 0,-1.1709 0,-1.75649 0,-1.95157 -0.6831,-3.41531 -2.0493,-4.39123 -1.2686,-1.07332 -2.8299,-1.61003 -4.6839,-1.61012 -1e-4,9e-5 -0.049,9e-5 -0.1464,0 0,9e-5 -0.049,9e-5 -0.1464,0 -0.098,9e-5 -0.1952,9e-5 -0.2927,0 -10e-5,9e-5 -10e-5,9e-5 0,0 -2.342,0.19526 -4.4889,1.21988 -6.4405,3.07386 -1.8541,1.75658 -2.7811,4.04978 -2.7811,6.8796 0,3.02515 1.171,5.75748 3.513,8.19697 2.4395,2.43965 5.3182,4.83043 8.6361,7.17235 0.7806,0.48798 1.5125,0.9759 2.1956,1.46375 0.7806,0.48798 1.5613,0.97589 2.342,1.46374 0.4878,0.29282 0.9758,0.63436 1.4637,1.02462 0.4879,0.29282 0.9758,0.58556 1.4638,0.87825 5.6597,3.8058 10.8316,8.19703 15.5156,13.1737 4.684,4.97678 7.026,11.51483 7.026,19.61418 l 0,0"
         style="font-size:146.3744812px;font-style:normal;font-variant:normal;font-weight:normal;font-stretch:normal;line-height:125%;letter-spacing:0px;word-spacing:0px;fill:#4d4d4d;fill-opacity:1;stroke:none;font-family:CoventryGarden;-inkscape-font-specification:CoventryGarden"
         id="path3087"
         inkscape:connector-curvature="0" />
    </g>
  </g>
</svg>
